<svg width="24" height="19" viewBox="0 0 24 19" fill="none" xmlns="http://www.w3.org/2000/svg">
<path fill-rule="evenodd" clip-rule="evenodd" d="M8.25 6.75C8.84674 6.75 9.41903 6.51295 9.84099 6.09099C10.2629 5.66903 10.5 5.09674 10.5 4.5C10.5 3.90326 10.2629 3.33097 9.84099 2.90901C9.41903 2.48705 8.84674 2.25 8.25 2.25C7.65326 2.25 7.08097 2.48705 6.65901 2.90901C6.23705 3.33097 6 3.90326 6 4.5C6 5.09674 6.23705 5.66903 6.65901 6.09099C7.08097 6.51295 7.65326 6.75 8.25 6.75ZM8.25 9C9.44347 9 10.5881 8.52589 11.432 7.68198C12.2759 6.83807 12.75 5.69347 12.75 4.5C12.75 3.30653 12.2759 2.16193 11.432 1.31802C10.5881 0.474106 9.44347 0 8.25 0C7.05653 0 5.91193 0.474106 5.06802 1.31802C4.22411 2.16193 3.75 3.30653 3.75 4.5C3.75 5.69347 4.22411 6.83807 5.06802 7.68198C5.91193 8.52589 7.05653 9 8.25 9ZM3.7065 13.329C2.541 14.139 2.25 14.9235 2.25 15.288C2.25 15.957 2.793 16.5 3.462 16.5H13.038C13.3592 16.4992 13.667 16.3713 13.8941 16.1441C14.1213 15.917 14.2492 15.6092 14.25 15.288C14.25 14.922 13.959 14.1375 12.7935 13.329C11.688 12.5625 10.0785 12 8.25 12C6.4215 12 4.812 12.5625 3.7065 13.329ZM0 15.288C0 12.519 3.7125 9.75 8.25 9.75C10.02 9.75 11.667 10.1715 13.0155 10.851C14.3068 10.121 15.7666 9.74144 17.25 9.75C20.9625 9.75 24 12.057 24 14.3655C24 15.1305 23.6961 15.8642 23.1551 16.4051C22.6142 16.9461 21.8805 17.25 21.1155 17.25H15.891C15.267 18.156 14.2215 18.75 13.038 18.75H3.462C2.54406 18.7492 1.66395 18.3842 1.01487 17.7351C0.365795 17.086 0.000794406 16.2059 0 15.288ZM16.4865 15H21.1155C21.4665 15 21.75 14.715 21.75 14.3655C21.75 14.211 21.606 13.6575 20.718 13.0305C19.887 12.441 18.6555 12 17.25 12C16.4745 12 15.7515 12.135 15.12 12.354C15.909 13.155 16.401 14.073 16.4865 15ZM18.75 5.25C18.75 5.64782 18.592 6.02936 18.3107 6.31066C18.0294 6.59196 17.6478 6.75 17.25 6.75C16.8522 6.75 16.4706 6.59196 16.1893 6.31066C15.908 6.02936 15.75 5.64782 15.75 5.25C15.75 4.85218 15.908 4.47064 16.1893 4.18934C16.4706 3.90804 16.8522 3.75 17.25 3.75C17.6478 3.75 18.0294 3.90804 18.3107 4.18934C18.592 4.47064 18.75 4.85218 18.75 5.25ZM21 5.25C21 6.24456 20.6049 7.19839 19.9016 7.90165C19.1984 8.60491 18.2446 9 17.25 9C16.2554 9 15.3016 8.60491 14.5983 7.90165C13.8951 7.19839 13.5 6.24456 13.5 5.25C13.5 4.25544 13.8951 3.30161 14.5983 2.59835C15.3016 1.89509 16.2554 1.5 17.25 1.5C18.2446 1.5 19.1984 1.89509 19.9016 2.59835C20.6049 3.30161 21 4.25544 21 5.25Z" fill="white" style="fill:white;fill-opacity:1;"/>
</svg>
